<svg xmlns="http://www.w3.org/2000/svg" viewBox="0 0 24 24">
  <path fill="#EA4335" d="M12 11.1v2.8h6.5c-.3 1.7-2 5-6.5 5-3.9 0-7.1-3.2-7.1-7.1s3.2-7.1 7.1-7.1c2.2 0 3.7.9 4.5 1.6l3-2.9C17.7 1.4 15.1 0 12 0 5.4 0 0 5.4 0 12s5.4 12 12 12c6.9 0 12-4.9 12-12 0-.8-.1-1.4-.2-1.9H12z"></path>
  <path fill="#34A853" d="M1.8 7.1l3.2 2.3C6 6.5 8.8 4.9 12 4.9c2.2 0 3.7.9 4.5 1.6l3-2.9C17.7 1.4 15.1 0 12 0 7.1 0 2.9 3 1.8 7.1z"></path>
  <path fill="#FBBC04" d="M12 24c3.1 0 5.9-1.2 7.8-3.3l-3.6-2.8c-1 1-2.5 1.6-4.2 1.6-4.5 0-6.1-3.3-6.5-5H1.9C2.8 20.2 6.9 24 12 24z"></path>
  <path fill="#4285F4" d="M23.8 10.1H12v3.8h6.5c-.3 1.7-2 5-6.5 5-3.9 0-7.1-3.2-7.1-7.1s3.2-7.1 7.1-7.1c2.2 0 3.7.9 4.5 1.6l3-2.9C17.7 1.4 15.1 0 12 0 5.4 0 0 5.4 0 12s5.4 12 12 12c6.9 0 12-4.9 12-12 0-.8-.1-1.4-.2-1.9z"></path>
</svg>
